<svg id="Calque_1" data-name="Calque 1" xmlns="http://www.w3.org/2000/svg" viewBox="0 0 116.2 116.2"><defs><style>.cls-1{fill:#d0d0d0;}</style></defs><title>down-arrow</title><path class="cls-1" d="M6.4,64.5A58.1,58.1,0,1,0,64.5,6.4,58.15,58.15,0,0,0,6.4,64.5Zm108,0A49.9,49.9,0,1,1,64.5,14.6,50,50,0,0,1,114.4,64.5Z" transform="translate(-6.4 -6.4)"/><path class="cls-1" d="M35.5,51.1A4,4,0,0,0,34.3,54a4.18,4.18,0,0,0,1.2,2.9L61.9,83.3a4.1,4.1,0,0,0,5.8,0L94.1,56.9a4.1,4.1,0,0,0-5.8-5.8L64.8,74.6,41.3,51.1A4.1,4.1,0,0,0,35.5,51.1Z" transform="translate(-6.4 -6.4)"/></svg>