<?xml version="1.0" encoding="utf-8"?>
<!-- Generator: Adobe Illustrator 23.0.3, SVG Export Plug-In . SVG Version: 6.00 Build 0)  -->
<svg version="1.1" id="Calque_1" xmlns="http://www.w3.org/2000/svg" xmlns:xlink="http://www.w3.org/1999/xlink" x="0px" y="0px"
	 viewBox="0 0 465 125" style="enable-background:new 0 0 465 125;" xml:space="preserve">
<style type="text/css">
	.st0{fill:#FFFFFF;}
</style>
<g>
	<path class="st0" d="M81.2,83.3c0,6.3,0,9.5,0.1,11c-5,1.3-16.8,3.7-26.2,3.7c-17.9,0-30.6-5.7-38-15.5c-4.5-6-7.1-13.3-7.1-22.8
		c0-16,8.5-25.5,17.5-30.6c10-6,20.6-6.3,27.7-6.3c12.3,0,22.2,2.8,25.5,3.1c-0.6,2.9-1.8,11.4-1.8,18c-3.7-4.1-13.2-9.8-26.2-9.8
		c-9,0-14,2.8-17.6,6.7c-3.7,4.1-5.4,10-5.4,16.6c0,5.8,1.2,11.6,3.3,15.1c4.7,8.9,12.3,13.9,23.6,13.9c2.1,0,5.6-0.3,6.9-1.1
		c0.2-0.2,0.2-1.2,0.2-2.3v-5.8c0-9-1.2-14.3-1.7-16.6c2.1,0.2,6.1,0.3,9.2,0.3c6,0,8.8-0.3,10.8-0.5c-0.4,2.3-0.9,8.3-0.9,20V83.3z
		"/>
	<path class="st0" d="M114.9,81.2c-0.3,0-0.4,0.1-0.5,0.3c-2.3,5.9-3.9,10.9-5,15.3c-1.8-0.2-3.8-0.3-7.9-0.3c-4.7,0-8.4,0.3-10,0.5
		c2.8-5.1,7.2-13.8,13.5-27.2l19.4-41.5c2.1-4.5,2.8-5.5,3.6-5.5c0.6,0,1.4,0.9,3.6,5.5c1.6,3.4,11.7,24.6,20.3,43.4
		c4.5,10,10,20.6,13.3,25.1c-3.8-0.2-7.4-0.3-8.8-0.3c-5,0-10.7,0.2-12.9,0.5c-1.8-4.4-4.6-11.4-6.5-15.5c-0.1-0.2-0.2-0.3-0.5-0.3
		H114.9z M132.4,70.1c0.3,0,0.4-0.2,0.3-0.5l-7.3-18l-7.1,18c-0.1,0.3-0.1,0.5,0.2,0.5H132.4z"/>
	<path class="st0" d="M199,24.5h31.6c1.9,0,2.2,0.1,2.2,0.5c0,0.9-1.1,2.5-1.5,3.4c-12.4,20.6-22.6,38.6-34.7,57.2h12.4
		c10.3,0,20.3-0.8,24.4-3.2c-1.1,3.4-2.9,10.7-3.8,14.1c-0.5,0.4-3.9,0.4-6,0.4c-16,0-29.1-0.4-51.7-0.4c-1.2,0-1.4-0.2-1.4-0.5
		c0-0.4,0.6-1.4,2.2-3.9c11.6-18.3,22.6-36.9,35-56.9H198c-16.3,0-22.7,2.7-25.1,4.3c1-3.6,2-11.2,2.5-16
		C177.9,23.9,184.1,24.5,199,24.5z"/>
	<path class="st0" d="M268.6,24.5h31.6c1.9,0,2.2,0.1,2.2,0.5c0,0.9-1.1,2.5-1.5,3.4c-12.4,20.6-22.6,38.6-34.7,57.2h12.4
		c10.3,0,20.3-0.8,24.4-3.2c-1.1,3.4-2.9,10.7-3.8,14.1c-0.5,0.4-3.9,0.4-6,0.4c-16,0-29.1-0.4-51.7-0.4c-1.2,0-1.4-0.2-1.4-0.5
		c0-0.4,0.6-1.4,2.2-3.9c11.6-18.3,22.6-36.9,35-56.9h-9.5c-16.3,0-22.7,2.7-25.1,4.3c1-3.6,2-11.2,2.5-16
		C247.5,23.9,253.7,24.5,268.6,24.5z"/>
	<path class="st0" d="M331.7,81.2c-0.3,0-0.4,0.1-0.5,0.3c-2.3,5.9-3.9,10.9-5,15.3c-1.8-0.2-3.8-0.3-7.9-0.3c-4.7,0-8.4,0.3-10,0.5
		c2.8-5.1,7.2-13.8,13.5-27.2l19.4-41.5c2.1-4.5,2.8-5.5,3.6-5.5c0.6,0,1.4,0.9,3.6,5.5c1.6,3.4,11.7,24.6,20.3,43.4
		c4.5,10,10,20.6,13.3,25.1c-3.8-0.2-7.4-0.3-8.8-0.3c-5,0-10.7,0.2-12.9,0.5c-1.8-4.4-4.6-11.4-6.5-15.5c-0.1-0.2-0.2-0.3-0.5-0.3
		H331.7z M349.3,70.1c0.3,0,0.4-0.2,0.3-0.5l-7.3-18l-7.1,18c-0.1,0.3-0.1,0.5,0.2,0.5H349.3z"/>
	<path class="st0" d="M392.5,52c0-13.7-0.3-23.5-1.6-27.8c2.7,0.2,5.3,0.3,8.1,0.3c1.5,0,12-0.4,16.6-0.4c9.5,0,15.6,1.3,19.6,3.5
		c5.1,2.7,10,8.2,10,16.4c0,7.8-4.6,14.7-12,19.1c5.2,7.9,11.5,16.9,17.4,23.8c4.6,5.3,7.5,8.2,9.7,9.3c-2.2,0.9-7.6,1.1-11.8,1.1
		c-7.8,0-11-1.9-13.8-4.5c-5.9-5.5-13.1-18.9-15.9-23.1c-0.2-0.3-0.6-0.6-1.1-0.6c-2.2,0-5.4,0-7.7,0c-0.3,0-0.4,0.1-0.4,0.5v2.1
		c0,10.6,0.6,20.1,1.3,25.2c-1.7-0.2-4.8-0.3-8.2-0.3c-3.5,0-9.8,0.2-11.6,0.5c0.8-5.1,1.4-16.1,1.4-28V52z M409.5,56.7
		c0,1,0.1,1.1,0.4,1.2c1.6,0.8,4.7,1.2,8.6,1.2c2.2,0,3.9-0.4,4.9-1.1c2.3-1.6,4.6-4.7,4.6-10.1c0-10.2-7.8-13.8-13.6-13.8
		c-2,0-3.9,0.1-4.6,0.4c-0.3,0.2-0.3,0.4-0.3,0.8V56.7z"/>
</g>
</svg>
