<svg xmlns="http://www.w3.org/2000/svg" viewBox="0 0 113.46 48.44"><defs><style>.cls-1,.cls-2,.cls-3{fill:#fff;}.cls-1{stroke:#850038;}.cls-1,.cls-3,.cls-4{stroke-miterlimit:10;}.cls-1,.cls-4{stroke-width:0.75px;}.cls-3,.cls-4{stroke:#fff;}.cls-3{stroke-width:0.25px;}.cls-4{fill:none;stroke-linecap:round;}</style></defs><title>logo_4</title><g id="Calque_2" data-name="Calque 2"><g id="Calque_1-2" data-name="Calque 1"><circle class="cls-1" cx="7.11" cy="30.39" r="1.42"/><circle class="cls-1" cx="9.44" cy="26.64" r="1.8"/><circle class="cls-1" cx="4.76" cy="26.64" r="1.8"/><circle class="cls-1" cx="11.95" cy="22.83" r="1.88"/><circle class="cls-1" cx="7.11" cy="22.83" r="1.88"/><circle class="cls-1" cx="2.26" cy="22.83" r="1.88"/><circle class="cls-1" cx="9.76" cy="18.97" r="2"/><circle class="cls-1" cx="4.5" cy="18.97" r="2"/><path class="cls-2" d="M7.18,17.36V11.94a.33.33,0,0,0-.48-.33l-.37.13c-.27.11-.17,0-.3.16l0,.86L6.28,14a7.1,7.1,0,0,1,.13.73c.29,1.84.43,2.79.43,2.79C7,17.7,7.18,17.64,7.18,17.36Z"/><path class="cls-3" d="M43.71,6.84a10,10,0,0,1-6.1,4.83c-11.72,3.72-33,.81-34.23.85a7.28,7.28,0,0,1-1.45-.15A1,1,0,0,1,1.38,12a.73.73,0,0,1-.14-.64A.85.85,0,0,1,2,10.94C3,11,25.89,14.3,36.9,11a9.91,9.91,0,0,0,6.18-4.73,4.29,4.29,0,0,0,.34-3.53A2.68,2.68,0,0,0,42,1.11a5.62,5.62,0,0,0-3,0,12.67,12.67,0,0,0-3.66,1.46c-.66.38-1.32.79-2,1.24S32,4.74,31.28,5.26A67,67,0,0,0,26.1,9.81a36.59,36.59,0,0,0-4.4,5.11c-1.8,2.65-2.73,4.9-2.81,6.75a4.24,4.24,0,0,0,1.67,4q1.79,1.21,5.08.64a19.32,19.32,0,0,0,7.42-3.41,34.91,34.91,0,0,0,3-2.27c1-.8,1.8-1.57,2.56-2.31a23.4,23.4,0,0,0,1.88-2,7.46,7.46,0,0,0,1-1.56v-.07a1.37,1.37,0,0,1,1-.64.64.64,0,0,1,.43,0,.41.41,0,0,1,.35.21h.07a1.22,1.22,0,0,1,.07.71c-.14.52-.55,1.7-1.24,3.55a43.22,43.22,0,0,1-3.09,6.39A38.84,38.84,0,0,0,45,21.7a25.3,25.3,0,0,0,5-4.22c.19-.19.34-.2.46,0a.31.31,0,0,1,0,.46,25,25,0,0,1-5.57,4.65,44.76,44.76,0,0,1-6.35,3.3,55.36,55.36,0,0,1-3.84,5.47,31.92,31.92,0,0,1-4.54,4.62,17.34,17.34,0,0,1-5,3,9.16,9.16,0,0,1-5.33.57,3.48,3.48,0,0,1-2.7-2c-.33-1,0-2.08,1.07-3.33s3.05-2.36,6-3.31q3.48-1.2,6.5-2.34c2-.76,3.89-1.51,5.65-2.27A47.15,47.15,0,0,0,39.13,21c.73-1.66,1.29-3,1.67-4.12A37.26,37.26,0,0,1,37.64,20a45.6,45.6,0,0,1-4.23,3.41A20.28,20.28,0,0,1,25.32,27a8.83,8.83,0,0,1-6-.71A4.86,4.86,0,0,1,17.05,22q-.11-3,2.87-7.42a34.2,34.2,0,0,1,4.44-5.22,58.29,58.29,0,0,1,5.29-4.58c.8-.62,1.63-1.21,2.49-1.78a27.82,27.82,0,0,1,2.62-1.56A12,12,0,0,1,38.63.22a7.48,7.48,0,0,1,3.55.25,3,3,0,0,1,1.92,2A5.28,5.28,0,0,1,43.71,6.84Zm-19,31a16.66,16.66,0,0,0,3.76-2.41,28.81,28.81,0,0,0,4.05-4,45,45,0,0,0,3.2-4.33Q33.2,28.2,30.4,29.3t-6,2.09c-2.7.85-4.55,1.84-5.54,3s-1.37,2.08-1.14,2.91,1,1.36,2.24,1.6A8,8,0,0,0,24.68,37.85Z"/><path class="cls-3" d="M54.43,17.05a1,1,0,0,1,.43-.53,1.52,1.52,0,0,1,.74-.29,1.15,1.15,0,0,1,.64.11c.17.1.22.31.18.64a7.12,7.12,0,0,0-.11,1.67,1.1,1.1,0,0,0,.82,1.17,3.45,3.45,0,0,0,2.66-.6,25.08,25.08,0,0,0,2.38-1.74c.14-.15.28-.13.42,0a.29.29,0,0,1,0,.46,15.38,15.38,0,0,1-2.76,2,6.7,6.7,0,0,1-2.35.78,2.63,2.63,0,0,1-2.16-.42,3,3,0,0,1-1-1.85,13.74,13.74,0,0,1-.92,1.1,4.68,4.68,0,0,1-1.14.89,4.5,4.5,0,0,1-2.38.81,1.52,1.52,0,0,1-1.31-.56,1.59,1.59,0,0,1-.07-1.42A4,4,0,0,1,50,17.48a4.22,4.22,0,0,1,2.09-.71A6.5,6.5,0,0,1,54.43,17.05Zm-.28.57a2.13,2.13,0,0,0-1.85-.14,4.17,4.17,0,0,0-1.56,1c-.85.85-1.08,1.44-.68,1.78s1,.23,1.81-.29A6.35,6.35,0,0,0,54.15,17.62Z"/><path class="cls-3" d="M66.71,17.33a3.66,3.66,0,0,1-1.28,1.78,4.14,4.14,0,0,1,1.35,1,5.69,5.69,0,0,1,1.07,2.06,41.91,41.91,0,0,0,4.22-2.31,6.76,6.76,0,0,0,2.52-2.37.29.29,0,0,1,.43-.15.29.29,0,0,1,.14.43,7.52,7.52,0,0,1-2.73,2.63c-1.31.8-2.78,1.61-4.44,2.41a10.57,10.57,0,0,1-.78,4.69,11.86,11.86,0,0,1-2.56,3.83c-2.27,2-4.24,3.21-5.93,3.52s-2.88.08-3.62-.68a3,3,0,0,1-.39-3.23c.48-1.39,1.75-2.78,3.84-4.15A35.43,35.43,0,0,1,62,24.86c1.25-.61,2.52-1.21,3.8-1.77l.57-.29a4.58,4.58,0,0,0-1-2.63,3.94,3.94,0,0,0-1.63-1,.24.24,0,0,1-.18-.28.36.36,0,0,1,.18-.29,1.85,1.85,0,0,0,.92-.74,3.61,3.61,0,0,0,.5-1.1c.09-.48.06-.76-.11-.86a.57.57,0,0,0-.6.08,6.24,6.24,0,0,0-1,1,4,4,0,0,0-.67,1c-.1.19-.25.23-.47.11s-.24-.3-.1-.53a9,9,0,0,1,.74-1,13.22,13.22,0,0,1,1.17-1.2,2,2,0,0,1,1.28-.54,1.47,1.47,0,0,1,1,.43,1.8,1.8,0,0,1,.5,1A2.2,2.2,0,0,1,66.71,17.33ZM63,30.82a10.44,10.44,0,0,0,2.48-3.4,9.2,9.2,0,0,0,.93-3.91l-.29.14c-1.28.57-2.53,1.16-3.76,1.78a35.09,35.09,0,0,0-3.41,1.92,8.93,8.93,0,0,0-3.44,3.47c-.55,1.19-.59,2.09-.14,2.7s1.33.77,2.66.46S61,32.62,63,30.82Z"/><path class="cls-3" d="M79.14,17.33a3.72,3.72,0,0,1-1.28,1.78,4.14,4.14,0,0,1,1.35,1,5.83,5.83,0,0,1,1.06,2.06,43.25,43.25,0,0,0,4.23-2.31A6.92,6.92,0,0,0,87,17.48a.31.31,0,1,1,.56.28,7.52,7.52,0,0,1-2.73,2.63,49.46,49.46,0,0,1-4.44,2.41,10.3,10.3,0,0,1-.78,4.69,11.84,11.84,0,0,1-2.55,3.83c-2.28,2-4.25,3.21-5.93,3.52s-2.89.08-3.62-.68a3,3,0,0,1-.39-3.23c.47-1.39,1.75-2.78,3.83-4.15a35.43,35.43,0,0,1,3.44-1.92c1.26-.61,2.52-1.21,3.8-1.77l.57-.29a4.57,4.57,0,0,0-1-2.63,4,4,0,0,0-1.64-1A.22.22,0,0,1,76,18.9a.36.36,0,0,1,.17-.29,1.92,1.92,0,0,0,.93-.74,3.58,3.58,0,0,0,.49-1.1c.1-.48.06-.76-.1-.86a.59.59,0,0,0-.61.08,6.24,6.24,0,0,0-1,1,4,4,0,0,0-.67,1c-.1.19-.25.23-.46.11a.34.34,0,0,1-.11-.53,8.17,8.17,0,0,1,.75-1,11,11,0,0,1,1.17-1.2,2,2,0,0,1,1.28-.54,1.47,1.47,0,0,1,.95.43,1.8,1.8,0,0,1,.5,1A2.2,2.2,0,0,1,79.14,17.33ZM75.37,30.82a10.61,10.61,0,0,0,2.49-3.4,9.33,9.33,0,0,0,.92-3.91l-.28.14c-1.28.57-2.54,1.16-3.77,1.78a34.89,34.89,0,0,0-3.4,1.92,9,9,0,0,0-3.45,3.47c-.54,1.19-.59,2.09-.14,2.7s1.34.77,2.66.46S73.38,32.62,75.37,30.82Z"/><path class="cls-3" d="M91.42,17.05a.93.93,0,0,1,.42-.53,1.59,1.59,0,0,1,.75-.29,1.15,1.15,0,0,1,.64.11c.16.1.22.31.18.64a6.62,6.62,0,0,0-.11,1.67,1.1,1.1,0,0,0,.82,1.17,3.45,3.45,0,0,0,2.66-.6,25.08,25.08,0,0,0,2.38-1.74c.14-.15.28-.13.42,0a.3.3,0,0,1,0,.46,15.06,15.06,0,0,1-2.77,2,6.59,6.59,0,0,1-2.34.78,2.65,2.65,0,0,1-2.17-.42,3.05,3.05,0,0,1-1-1.85,13.87,13.87,0,0,1-.93,1.1,4.63,4.63,0,0,1-1.13.89,4.5,4.5,0,0,1-2.38.81,1.52,1.52,0,0,1-1.31-.56,1.62,1.62,0,0,1-.08-1.42A4,4,0,0,1,87,17.48a4.22,4.22,0,0,1,2.09-.71A6.53,6.53,0,0,1,91.42,17.05Zm-.29.57a2.1,2.1,0,0,0-1.84-.14,4.17,4.17,0,0,0-1.56,1c-.86.85-1.08,1.44-.68,1.78s1,.23,1.81-.29A6.24,6.24,0,0,0,91.13,17.62Z"/><path class="cls-3" d="M103.77,23.23a18.84,18.84,0,0,0,2.45-1.32c.88-.54,1.73-1.1,2.56-1.66s1.57-1.11,2.23-1.6a14,14,0,0,0,1.42-1.17c.19-.19.35-.19.46,0s.11.33,0,.42c-.33.29-.83.7-1.49,1.24s-1.41,1.11-2.24,1.67-1.69,1.13-2.59,1.67a22.83,22.83,0,0,1-2.48,1.32l-1,.39a6.67,6.67,0,0,1-1.31.35,5.65,5.65,0,0,1-1.28.07,1.08,1.08,0,0,1-.89-.46,1.53,1.53,0,0,1-.35-1A3.36,3.36,0,0,1,99.44,22c.14-.38.3-.76.46-1.14s.32-.68.46-.92A4.39,4.39,0,0,0,101,18a1.69,1.69,0,0,0-.35-1.1,8.65,8.65,0,0,0-.61.67,1.41,1.41,0,0,1-.53.46.29.29,0,0,1-.43-.1.35.35,0,0,1,.08-.46,4.76,4.76,0,0,1,.46-.43,4.35,4.35,0,0,0,.53-.57,5.58,5.58,0,0,1-1.49-1.06,1,1,0,0,1-.43-.85,1.26,1.26,0,0,1,.43-.75,3.14,3.14,0,0,1,.85-.53,2.41,2.41,0,0,1,.92-.22,1.61,1.61,0,0,1,1.14.4,1.09,1.09,0,0,1,.28,1.1,3.89,3.89,0,0,1-.42,1.13c.33.24.62.48.89.71a2.15,2.15,0,0,1,.56.82,2.24,2.24,0,0,1,0,1.2,6.84,6.84,0,0,1-.71,1.82,5.68,5.68,0,0,0-1.07,3,.49.49,0,0,0,.4.53,1.59,1.59,0,0,0,.81,0,7,7,0,0,0,.85-.28C103.49,23.36,103.68,23.28,103.77,23.23Zm-2.84-7.88q.21-.49.36-.93c.09-.37,0-.54-.39-.49a1.25,1.25,0,0,0-.75.28c-.19.24-.14.46.14.68Z"/><line class="cls-4" x1="31.14" y1="37.19" x2="112.98" y2="37.19"/><polyline class="cls-4" points="0.97 37.19 14.61 37.19 15.1 37.19"/><path class="cls-2" d="M.56,42.09H3.13a3.69,3.69,0,0,1,1.76.4,2.92,2.92,0,0,1,1.19,1.12,3.37,3.37,0,0,1,0,3.26A2.92,2.92,0,0,1,4.89,48a3.81,3.81,0,0,1-1.76.4H.56Zm2.53,5.72a3,3,0,0,0,1.45-.33,2.35,2.35,0,0,0,1-.9,2.69,2.69,0,0,0,.34-1.34,2.67,2.67,0,0,0-.34-1.34,2.44,2.44,0,0,0-1-.91,3,3,0,0,0-1.45-.33H1.23v5.15Z"/><path class="cls-2" d="M13.63,47.81v.58H9.18v-6.3H13.5v.57H9.84v2.25H13.1v.56H9.84v2.34Z"/><path class="cls-2" d="M16.77,48.22a2.49,2.49,0,0,1-1-.6l.26-.51a2.54,2.54,0,0,0,.91.55,3.15,3.15,0,0,0,1.17.22,2.18,2.18,0,0,0,1.27-.31,1,1,0,0,0,.43-.81.81.81,0,0,0-.23-.6,1.57,1.57,0,0,0-.57-.35c-.22-.08-.53-.17-.92-.27A9.78,9.78,0,0,1,17,45.2a1.83,1.83,0,0,1-.72-.51,1.37,1.37,0,0,1-.3-.93,1.57,1.57,0,0,1,.25-.87,1.67,1.67,0,0,1,.77-.62,3.11,3.11,0,0,1,1.3-.24,3.82,3.82,0,0,1,1.06.15,3.18,3.18,0,0,1,.89.41l-.22.53a3.23,3.23,0,0,0-1.73-.52,2.07,2.07,0,0,0-1.25.32,1,1,0,0,0-.42.83.81.81,0,0,0,.23.6,1.61,1.61,0,0,0,.58.35q.34.12.93.27a8.64,8.64,0,0,1,1.12.34,1.77,1.77,0,0,1,.73.5,1.38,1.38,0,0,1,.29.91,1.55,1.55,0,0,1-.25.87,1.73,1.73,0,0,1-.79.62,3.2,3.2,0,0,1-1.31.23A4,4,0,0,1,16.77,48.22Z"/><path class="cls-2" d="M31.87,42.09l-2.79,6.3h-.66l-2.79-6.3h.72l2.41,5.47,2.43-5.47Z"/><path class="cls-2" d="M34,42.09h.67v6.3H34Z"/><path class="cls-2" d="M43.12,42.09v6.3h-.55l-4-5.11v5.11h-.67v-6.3h.55l4.06,5.11V42.09Z"/><path class="cls-2" d="M46.74,48.22a2.49,2.49,0,0,1-1-.6l.26-.51a2.54,2.54,0,0,0,.91.55,3.15,3.15,0,0,0,1.17.22,2.18,2.18,0,0,0,1.27-.31,1,1,0,0,0,.43-.81.81.81,0,0,0-.23-.6,1.57,1.57,0,0,0-.57-.35c-.22-.08-.53-.17-.92-.27a9.78,9.78,0,0,1-1.14-.34,1.83,1.83,0,0,1-.72-.51,1.37,1.37,0,0,1-.3-.93,1.57,1.57,0,0,1,.25-.87,1.67,1.67,0,0,1,.77-.62,3.11,3.11,0,0,1,1.3-.24,3.82,3.82,0,0,1,1.06.15,3.18,3.18,0,0,1,.89.41l-.22.53a3.23,3.23,0,0,0-1.73-.52,2.07,2.07,0,0,0-1.25.32,1,1,0,0,0-.42.83.81.81,0,0,0,.23.6,1.61,1.61,0,0,0,.58.35q.35.12.93.27a8.64,8.64,0,0,1,1.12.34,1.77,1.77,0,0,1,.73.5,1.38,1.38,0,0,1,.29.91,1.55,1.55,0,0,1-.25.87,1.73,1.73,0,0,1-.79.62,3.2,3.2,0,0,1-1.31.23A4,4,0,0,1,46.74,48.22Z"/><path class="cls-2" d="M56.6,42.09h2.56a3.73,3.73,0,0,1,1.77.4,3,3,0,0,1,1.19,1.12,3.37,3.37,0,0,1,0,3.26A3,3,0,0,1,60.93,48a3.85,3.85,0,0,1-1.77.4H56.6Zm2.53,5.72a3.07,3.07,0,0,0,1.45-.33,2.38,2.38,0,0,0,1-.9,2.81,2.81,0,0,0,0-2.68,2.48,2.48,0,0,0-1-.91,3.07,3.07,0,0,0-1.45-.33H57.26v5.15Z"/><path class="cls-2" d="M65.35,41.81a.46.46,0,0,1,.14.34,1,1,0,0,1,0,.23,2.22,2.22,0,0,1-.09.28L65,43.91h-.44l.32-1.3a.41.41,0,0,1-.24-.17.46.46,0,0,1-.09-.29.48.48,0,0,1,.13-.35.47.47,0,0,1,.34-.13A.42.42,0,0,1,65.35,41.81Z"/><path class="cls-2" d="M69.22,48A3,3,0,0,1,68,46.88a3.34,3.34,0,0,1,0-3.28,3.06,3.06,0,0,1,1.19-1.15,3.46,3.46,0,0,1,1.7-.42,3.38,3.38,0,0,1,1.68.42,3,3,0,0,1,1.19,1.15,3.11,3.11,0,0,1,.43,1.64,3.16,3.16,0,0,1-.43,1.64A3.06,3.06,0,0,1,72.6,48a3.65,3.65,0,0,1-3.38,0Zm3-.51a2.47,2.47,0,0,0,.94-.93,2.81,2.81,0,0,0,0-2.68,2.4,2.4,0,0,0-.94-.93,2.68,2.68,0,0,0-1.35-.34,2.72,2.72,0,0,0-1.36.34,2.43,2.43,0,0,0-1,.93,2.74,2.74,0,0,0,0,2.68,2.5,2.5,0,0,0,1,.93,2.72,2.72,0,0,0,1.36.34A2.68,2.68,0,0,0,72.27,47.51Z"/><path class="cls-2" d="M81.2,48.39l-1.44-2a4.24,4.24,0,0,1-.51,0H77.56v2h-.67v-6.3h2.36a2.86,2.86,0,0,1,1.89.57,2,2,0,0,1,.69,1.59,2.06,2.06,0,0,1-.38,1.25,2.11,2.11,0,0,1-1.06.73l1.53,2.16Zm-.54-3a1.43,1.43,0,0,0,.5-1.16,1.46,1.46,0,0,0-.5-1.18,2.2,2.2,0,0,0-1.43-.41H77.56v3.16h1.67A2.14,2.14,0,0,0,80.66,45.41Z"/><path class="cls-2" d="M84.58,42.09h.67v6.3h-.67Z"/><path class="cls-2" d="M92.91,45.24h.64v2.4a3.05,3.05,0,0,1-1,.6,4.12,4.12,0,0,1-1.27.2,3.53,3.53,0,0,1-1.7-.41,3.06,3.06,0,0,1-1.19-1.15,3.16,3.16,0,0,1-.43-1.64,3.11,3.11,0,0,1,.43-1.64,3,3,0,0,1,1.19-1.15A3.44,3.44,0,0,1,91.25,42a3.73,3.73,0,0,1,1.32.23,2.77,2.77,0,0,1,1,.68l-.42.43a2.59,2.59,0,0,0-1.9-.74,2.77,2.77,0,0,0-1.38.34,2.39,2.39,0,0,0-1,.93,2.56,2.56,0,0,0-.36,1.34,2.53,2.53,0,0,0,.36,1.33,2.48,2.48,0,0,0,1,.94,2.88,2.88,0,0,0,1.38.34,2.7,2.7,0,0,0,1.64-.49Z"/><path class="cls-2" d="M96.61,42.09h.67v6.3h-.67Z"/><path class="cls-2" d="M105.77,42.09v6.3h-.55l-4-5.11v5.11h-.67v-6.3h.55l4.06,5.11V42.09Z"/><path class="cls-2" d="M113.46,47.81v.58H109v-6.3h4.32v.57h-3.65v2.25h3.26v.56h-3.26v2.34Z"/></g></g></svg>