<svg width="30" height="30" viewBox="0 0 30 30" fill="none" xmlns="http://www.w3.org/2000/svg">
<g clip-path="url(#clip0)">
<path d="M15 0C6.75 0 0 6.55147 0 14.5588C0 22.5662 6.75 29.1176 15 29.1176C23.25 29.1176 30 22.5662 30 14.5588C30 6.55147 23.25 0 15 0ZM25.35 8.73529H21C20.55 6.84265 19.8 5.24118 18.9 3.49412C21.6 4.51324 24 6.26029 25.35 8.73529ZM15 2.91176C16.2 4.65882 17.25 6.55147 17.85 8.73529H12.15C12.75 6.69706 13.8 4.65882 15 2.91176ZM3.45 17.4706C3.15 16.5971 3 15.5779 3 14.5588C3 13.5397 3.15 12.5206 3.45 11.6471H8.55C8.4 12.6662 8.4 13.5397 8.4 14.5588C8.4 15.5779 8.55 16.4515 8.55 17.4706H3.45ZM4.65 20.3824H9C9.45 22.275 10.2 23.8765 11.1 25.6235C8.4 24.6044 6 22.8574 4.65 20.3824ZM9 8.73529H4.65C6.15 6.26029 8.4 4.51324 11.1 3.49412C10.2 5.24118 9.45 6.84265 9 8.73529ZM15 26.2059C13.8 24.4588 12.75 22.5662 12.15 20.3824H17.85C17.25 22.4206 16.2 24.4588 15 26.2059ZM18.45 17.4706H11.55C11.4 16.4515 11.25 15.5779 11.25 14.5588C11.25 13.5397 11.4 12.6662 11.55 11.6471H18.6C18.75 12.6662 18.9 13.5397 18.9 14.5588C18.9 15.5779 18.6 16.4515 18.45 17.4706ZM18.9 25.6235C19.8 24.0221 20.55 22.2751 21 20.3824H25.35C24 22.8574 21.6 24.6044 18.9 25.6235ZM21.6 17.4706C21.75 16.4515 21.75 15.5779 21.75 14.5588C21.75 13.5397 21.6 12.6662 21.6 11.6471H26.7C27 12.5206 27.1499 13.5397 27.1499 14.5588C27.1499 15.5779 26.9999 16.5971 26.7 17.4706H21.6Z" fill="white"/>
</g>
<defs>
<clipPath id="clip0">
<rect width="30" height="29.1176" fill="white"/>
</clipPath>
</defs>
</svg>
