<svg id="Calque_1" data-name="Calque 1" xmlns="http://www.w3.org/2000/svg" viewBox="0 0 116.2 116.2"><defs><style>.cls-1{fill:#fff;}</style></defs><title>up-arrow</title><path class="cls-1" d="M122.6,64.5a58.1,58.1,0,1,0-58.1,58.1A58.15,58.15,0,0,0,122.6,64.5Zm-108,0a49.9,49.9,0,1,1,49.9,49.9A50,50,0,0,1,14.6,64.5Z" transform="translate(-6.4 -6.4)"/><path class="cls-1" d="M93.5,77.9A4,4,0,0,0,94.7,75a4.18,4.18,0,0,0-1.2-2.9L67.1,45.7a4.1,4.1,0,0,0-5.8,0L34.9,72.1a4.1,4.1,0,1,0,5.8,5.8L64.2,54.4,87.7,77.9A4.1,4.1,0,0,0,93.5,77.9Z" transform="translate(-6.4 -6.4)"/></svg>