<?xml version="1.0" encoding="utf-8"?>
<!-- Generator: Adobe Illustrator 23.0.2, SVG Export Plug-In . SVG Version: 6.00 Build 0)  -->
<svg version="1.1" id="Calque_1" xmlns="http://www.w3.org/2000/svg" xmlns:xlink="http://www.w3.org/1999/xlink" x="0px" y="0px"
	 viewBox="0 0 30 30.4" style="enable-background:new 0 0 30 30.4;" xml:space="preserve">
<style type="text/css">
	.st0{fill:#FFFFFF;}
</style>
<g>
	<path class="st0" d="M4,17.9c0.3,1.2,0.8,2.3,1.5,3.5l-1.8,1.8c-0.8,0.8-0.8,1.3-0.2,2l1.8,1.8c0.7,0.7,1.3,0.7,2-0.2l2-2
		c1,0.5,2,1,3,1.2v2.3c0,1.2,0.3,1.5,1.3,1.5h2.7c1,0,1.3-0.3,1.3-1.5v-2.3c1-0.3,2-0.7,3-1.2l2,2c0.8,0.8,1.3,0.8,2,0.2l1.8-1.8
		c0.7-0.7,0.7-1.2-0.2-2l-2-2c0.7-1,1.2-2.2,1.5-3.5h2.5c1,0,1.3-0.3,1.3-1.5v-2.3c0-1.2-0.3-1.5-1.3-1.5h-2.5c-0.3-1-0.7-2-1.2-3
		l1.8-1.8c0.8-0.8,0.8-1.3,0.2-2l-1.7-1.7c-0.7-0.7-1.3-0.7-2,0.2l-1.7,1.7c-1-0.7-2.2-1.2-3.5-1.5V1.7c0-1.2-0.3-1.5-1.3-1.5h-2.7
		c-1,0-1.3,0.3-1.3,1.5V4C11.4,4.4,10.2,4.9,9,5.5L7.4,3.9C6.4,3,5.9,3,5,3.9L3.2,5.7c-0.7,0.7-0.7,1.2,0.2,2l1.8,1.8
		c-0.5,1-1,2-1.2,3H1.3c-1,0-1.3,0.3-1.3,1.5v2.3c0,1.2,0.3,1.5,1.3,1.5H4z M10.7,15.2c0-2.5,2-4.4,4.4-4.4c2.5,0,4.4,2,4.4,4.4
		c0,2.3-2,4.4-4.4,4.4C12.6,19.6,10.7,17.7,10.7,15.2z"/>
</g>
</svg>
