<?xml version="1.0" encoding="utf-8"?>
<!-- Generator: Adobe Illustrator 23.0.4, SVG Export Plug-In . SVG Version: 6.00 Build 0)  -->
<svg version="1.1" id="Calque_1" xmlns="http://www.w3.org/2000/svg" xmlns:xlink="http://www.w3.org/1999/xlink" x="0px" y="0px"
	 viewBox="0 0 145 145" style="enable-background:new 0 0 145 145;" xml:space="preserve">
<style type="text/css">
	.st0{fill:#850038;}
</style>
<path class="st0" d="M145,72.5c0,40-32.5,72.5-72.5,72.5C32.5,145,0,112.5,0,72.5C0,32.5,32.5,0,72.5,0C112.5,0,145,32.5,145,72.5z
	 M64.1,110.9l53.8-53.8c1.8-1.8,1.8-4.8,0-6.6l-6.6-6.6c-1.8-1.8-4.8-1.8-6.6,0L60.8,87.7L40.3,67.3c-1.8-1.8-4.8-1.8-6.6,0
	l-6.6,6.6c-1.8,1.8-1.8,4.8,0,6.6l30.4,30.4C59.3,112.7,62.3,112.7,64.1,110.9L64.1,110.9z"/>
</svg>
