<svg width="43" height="43" viewBox="0 0 43 43" fill="none" xmlns="http://www.w3.org/2000/svg">
<path d="M42.5792 21.4885L23.6887 42.2032V30.1064V29.8035L23.3857 29.8064C15.8469 29.8798 8.6264 33.1036 3.53935 38.6769L3.76093 38.8792L3.53934 38.6769L0.3 42.2263V33.9845C0.3 28.4246 2.46445 23.1991 6.39581 19.2677C10.3272 15.3364 15.5527 13.1719 21.1122 13.1719H23.3887H23.6887V12.8719V0.774179L42.5792 21.4885ZM2.21986 36.522V37.2616L2.73508 36.731C8.2043 31.0988 15.7752 27.8856 23.6475 27.8856H25.6082V36.4748V37.249L26.1299 36.677L39.797 21.6907L39.9814 21.4885L39.797 21.2864L26.1299 6.3004L25.6082 5.7284V6.50256V15.0918H21.1122C16.0664 15.0918 11.3211 17.0573 7.75326 20.6252C4.1854 24.193 2.21986 28.9387 2.21986 33.9845V36.522Z" fill="#930046" stroke="white" stroke-width="0.6"/>
</svg>
